<?xml version="1.0" encoding="utf-8"?>
<!-- Generator: Adobe Illustrator 24.3.0, SVG Export Plug-In . SVG Version: 6.00 Build 0)  -->
<svg version="1.1" id="Ebene_1" xmlns="http://www.w3.org/2000/svg" xmlns:xlink="http://www.w3.org/1999/xlink" x="0px" y="0px"
	 viewBox="0 0 411 185" style="enable-background:new 0 0 411 185;" xml:space="preserve">
<style type="text/css">
	.st0{fill:#FFFFFF;}
</style>
<g id="Page-1">
	<g id="appuio_logo-f81608f1">
		<g id="b-link" transform="translate(0.000000, 0.502000)">
		</g>
		<path id="Combined-Shape" class="st0" d="M399.4,0.8c6.3,0,11.5,5.1,11.5,11.4l0,0v128.5c0,6.3-5.1,11.4-11.4,11.4l0,0h-70.7
			l-23.9,31.6v-31.6H14c-6.3,0-11.4-5.1-11.4-11.4l0,0L0,12.2C0,5.9,5.1,0.8,11.4,0.8l0,0H399.4z M340.7,110.3L340.7,110.3
			c-4.9,0-8.9,3.9-8.9,8.9s4,8.9,9,8.9s9-3.9,9-8.9S345.7,110.3,340.7,110.3L340.7,110.3z M134,110.2L134,110.2c-5,0-9,3.8-9,8.9
			c0,5,4,8.8,9,8.8c5,0,9.1-3.8,9.1-8.8C143,114,139,110.2,134,110.2L134,110.2z M116.6,110.1l0,0.1c-5,0-9.1,3.7-9.1,8.8
			s4.1,8.8,9.1,8.8c2.8,0,5.2-1.1,6.8-3.1l0,0l-2.1-1.8c-1.1,1.4-2.8,2.2-4.7,2.2c-3.4,0-6-2.6-6-6.1s2.6-6.1,6-6.1
			c1.9,0,3.5,0.8,4.7,2.1l0,0l2.1-1.8C121.7,111.3,119.3,110.1,116.6,110.1L116.6,110.1z M184.5,110.5h-2.6l-0.2,0.1l-7.1,17.1h3.3
			l1.4-3.4h7.6l1.4,3.4h3.3L184.5,110.5z M359.7,110.6H353l-0.1,0v17.1h3.1v-6.1h3l3.7,6.1h3.5l-4.2-6.8c1.8-0.7,3.1-2.6,3.1-4.8
			C365.2,112.9,362.7,110.6,359.7,110.6L359.7,110.6z M197.1,110.6H194l0.1,17.1h3V110.6z M204,110.6h-2.7v17.1h3v-12.1l9.2,12.1
			h2.5v-17.1h-3v11.9L204,110.6z M231.1,110.6h-10.9l0,17.1h11.1v-2.8h-8v-4.7h7.4v-2.8h-7.4v-4.1h7.8V110.6z M371.6,110.6h-2.7
			l0.1,17h2.9V116l5.8,9l5.8-9.1v11.7h2.9v-17.1h-2.6l-6.1,9.6L371.6,110.6z M329.5,110.5h-10.4l0.1,17.1h3v-7.3h6.6v-2.8h-6.7v-4.3
			h7.3V110.5z M74.4,110.1c-2.9,0-5.3,1.8-5.3,4.6c0,3,2.1,4.1,4.9,5.2c2.1,0.8,3.5,1.4,3.5,2.9c0,0.8-0.5,2.2-2.9,2.2
			c-2.1,0-3.5-1-4.3-2.6l0,0l-0.1-0.2l-2.3,1.4c1.1,2.4,3.3,3.9,6.6,3.9c4,0,6-2.2,6-5.1c0-2.6-1.4-4-4.5-5.2
			c-2.5-1.1-3.9-1.3-3.9-2.9c0-1.1,1-1.8,2.4-1.8c1.4,0,2.4,0.6,3.1,1.6l0,0l2.2-1.5C78.6,111.3,77,110.1,74.4,110.1z M88.9,110.1
			c-2.9,0-5.3,1.8-5.3,4.6c0,3,2.1,4.1,4.9,5.2c2.1,0.8,3.5,1.4,3.5,2.9c0,0.8-0.5,2.2-2.9,2.2c-2.1,0-3.5-1-4.3-2.6l0,0l0-0.2
			l-2.3,1.4c1.1,2.4,3.3,3.9,6.6,3.9c4,0,6-2.2,6-5.1c0-2.6-1.5-4-4.6-5.2c-2.5-1.1-3.9-1.3-3.9-2.9c0-1.1,1-1.8,2.3-1.8
			c1.5,0,2.5,0.6,3.1,1.6l0,0l2.2-1.5C93.1,111.3,91.5,110.1,88.9,110.1z M29.9,110c-2.9,0-5.3,1.8-5.3,4.6c0,3,2.2,4.1,4.9,5.2
			c2.1,0.8,3.5,1.4,3.5,3c0,0.8-0.5,2.2-2.9,2.2c-2.1,0-3.5-1.1-4.3-2.6l0,0l0.2-0.1l-2.3,1.5c1,2.3,3.2,3.8,6.2,3.9l0.3,0
			c4.1,0,6-2.2,6-5.1c0-2.6-1.5-3.9-4.6-5.2c-2.5-1-3.9-1.3-3.9-2.8c0-1.1,1-1.8,2.3-1.8c1.5,0,2.4,0.5,3,1.5l0,0l2.2-1.5
			C34.2,111.2,32.5,110,29.9,110z M316.6,110.4h-12.4v2.8h4.7l0.1,0.1v14.3h3v-14.4h4.6V110.4z M146,110.3v17.1h3v-12.1l9.5,12.3
			h2.5v-17.1h-3v11.9l-9.1-11.9h-2.7L146,110.3z M297.6,110.4h-2.5l-7.1,17.2h3.1l1.4-3.4h7.6l1.4,3.4h3.2L297.6,110.4z
			 M278.9,110.4h-3.1l0.2,17.2h9.7v-2.8h-6.8V110.4z M267.5,110.4H261l0,0v17.1h3v-6h3.5c2.9,0,5.6-2.3,5.6-5.5
			C273.1,112.5,270.3,110.4,267.5,110.4L267.5,110.4z M241.4,110.5h-6.2v17h3.1v-6.1h3l3.7,6.1h3l-4.1-6.8c1.8-0.7,3.1-2.6,3.1-4.8
			C247,112.8,244.4,110.5,241.4,110.5L241.4,110.5z M175.5,110.3h-12.3v2.8h4.6l-0.1,0.1v14.3h3.1v-14.4h4.7V110.3z M40.3,110.4h-3
			l5.2,17.1h2.4l3.6-11.5l3.6,11.5h2.5l5.1-17.1h-3l-3.5,11.5l-3.6-11.5h-2.3l-3.5,11.5L40.3,110.4z M65.3,110.4h-3.1l0,17.1h3.1
			V110.4z M340.6,113.1c3.4,0,6,2.7,6,6.1c0,3.5-2.6,6.1-6,6.1l0,0l-0.2,0c-3.3-0.1-5.8-2.7-5.9-5.9l0-0.2
			C334.6,115.8,337.2,113.1,340.6,113.1z M133.9,113c3.4,0,6,2.7,6,6.1c0,3.5-2.6,6.1-6,6.1l0,0l-0.2,0c-3.3-0.1-5.7-2.7-5.8-5.9
			l0-0.2C127.9,115.7,130.5,113,133.9,113z M183.2,114.7l2.9,7h-5.8L183.2,114.7z M296.3,114.6l2.8,7h-5.6L296.3,114.6z
			 M359.5,113.4c1.5,0,2.6,1.1,2.6,2.7c0,1.6-1.1,2.8-2.8,2.8l0,0H356v-5.5H359.5z M241.3,113.3c1.5,0,2.6,1.1,2.6,2.7
			s-1.1,2.8-2.8,2.8l0,0H238v-5.5H241.3z M267.4,113.2c1.3,0,2.7,0.8,2.7,2.8c0,1.9-1.5,2.8-2.7,2.8l0,0H264v-5.6H267.4z
			 M348.7,24.9c-21,0-37.9,16.2-37.9,37.3s16.9,37.2,37.9,37.2c21.1,0,38-16.1,38-37.2C386.7,41,369.8,24.9,348.7,24.9z M232.9,26.3
			h-12.8v44.3c0,19.1,12.8,28.6,29.1,28.6c16.1,0,29-9.5,29-28.7V26.3h-12.8v43c0,12.8-6.5,18.3-16.2,18.3
			c-9.8,0-16.3-5.6-16.3-18.3V26.3z M130.2,26.3l0.1,0.1h-27.4v71.9h12.9V73h14.5c11.9,0,23.3-9.6,23.3-23.3
			C153.6,35.2,141.6,26.3,130.2,26.3z M302,46.2h-12.3l-0.1,52H302V46.2z M189,26.3h-27.4v71.9h12.9V73h14.6
			c11.9,0,23.3-9.6,23.3-23.3C212.4,35.2,200.4,26.3,189,26.3z M65.6,26.3H54.7l-30,71.9h13.6l5.9-14.3h31.9L82,98.2h13.5L65.6,26.3
			z M348.7,36.6l0,0.1c14.3,0,25.2,11.3,25.2,25.7c0,14.4-10.9,25.5-25.2,25.5c-14.3,0-25.2-11.1-25.2-25.6S334.3,36.6,348.7,36.6z
			 M60.2,43.9l11.9,29.3H48.2L60.2,43.9z M188.5,38c5.1,0,11.2,3.6,11.2,11.8c0,8-6.1,11.7-11.2,11.7h-13.9V38H188.5z M129.7,38
			c5.2,0,11.2,3.6,11.2,11.8c0,8-6.1,11.7-11.2,11.7v-0.1h-13.9V38H129.7z M295.9,25.5c-4,0-7.4,3.2-7.4,7.3c0,4.1,3.4,7.3,7.4,7.3
			c3.9,0,7.3-3.2,7.3-7.3S299.8,25.5,295.9,25.5z"/>
	</g>
</g>
</svg>
