<?xml version="1.0" encoding="UTF-8"?>
<svg width="290px" height="85px" viewBox="0 0 290 85" version="1.1" xmlns="http://www.w3.org/2000/svg" xmlns:xlink="http://www.w3.org/1999/xlink">
    <title>die-mobiliar-vector-logo</title>
    <defs>
        <filter id="filter-1">
            <feColorMatrix in="SourceGraphic" type="matrix" values="0 0 0 0 1.000000 0 0 0 0 1.000000 0 0 0 0 1.000000 0 0 0 1.000000 0"></feColorMatrix>
        </filter>
    </defs>
    <g id="AC-UI-Desktop--V1" stroke="none" stroke-width="1" fill="none" fill-rule="evenodd">
        <g id="die-mobiliar-vector-logo" transform="translate(-316.000000, -4847.000000)" filter="url(#filter-1)">
            <g transform="translate(316.000000, 4847.000000)">
                <path d="M77.0294316,35.8356253 C75.8348562,34.6732828 74.153602,34.1136364 72.0299125,34.1136364 C69.9504665,34.1136364 68.0037511,34.5871833 66.2782533,35.4481778 C64.5527556,36.3522219 63.0927191,37.5145644 61.9423872,38.8491058 C60.3053766,40.7432936 59.1550447,43.0249289 58.5356353,45.5648625 C57.9162258,48.1478458 57.5622776,50.6877794 57.5622776,53.1846633 C57.5622776,56.2842433 58.2259306,58.6950278 59.59748,60.4170167 C60.9690295,62.1390056 62.9599885,63 65.5703568,63 C67.7382899,63 69.7292488,62.6125525 71.4547466,61.8807072 C73.1802443,61.1488619 74.5960373,60.2878675 75.7463691,59.3407736 L75.7906127,59.2977239 L75.7906127,59.2546742 C75.9675868,58.8241769 76.1445609,58.3075803 76.2772915,57.7479339 C76.4100221,57.1882875 76.4985092,56.5855914 76.4985092,56.0689947 L76.4985092,55.8537461 L76.2772915,56.025945 C75.6578821,56.4133925 74.9942291,56.80084 74.2420891,57.1021881 C73.489949,57.4035361 72.737809,57.7048842 71.9856689,57.9201328 C71.1892854,58.1353814 70.4371453,58.35063 69.7292488,58.4367294 C68.9771088,58.5658786 68.3134558,58.6519781 67.6940464,58.6519781 C64.5527556,58.6519781 63.0484755,56.4133925 63.0484755,51.8501219 L63.0484755,50.3003319 C66.2340098,50.1711828 68.8886217,49.826785 70.8795806,49.2240889 C72.9590266,48.6213928 74.5960373,47.8464978 75.7463691,46.9424536 C76.896701,46.0384094 77.7373281,45.0052161 78.1797634,43.8859233 C78.6221987,42.7666305 78.8434164,41.6473378 78.8434164,40.4849953 C78.7991728,38.5477578 78.2240069,36.954918 77.0294316,35.8356253 M73.489949,42.85273 C73.2687314,43.4984758 72.7820525,44.1011719 72.074156,44.6608183 C71.322016,45.2204647 70.2601712,45.6940117 68.8443782,46.0384094 C67.4728287,46.4258569 65.6588439,46.6411055 63.3139367,46.727205 C63.4466673,45.7370614 63.667885,44.7469178 63.9333462,43.7998239 C64.1988073,42.8096803 64.6412427,41.8625864 65.172165,41.0015919 C65.835818,39.9253489 66.6764451,39.0643544 67.6498028,38.4186086 C68.6674041,37.7728628 69.7734924,37.4715147 70.9238242,37.4715147 C71.9414254,37.4715147 72.6935655,37.7728628 73.0917572,38.4186086 C73.5341926,39.0643544 73.7554102,39.8392494 73.7554102,40.829393 C73.8438973,41.5181886 73.7111667,42.2069841 73.489949,42.85273" id="Shape" fill="#000000" fill-rule="nonzero"></path>
                <path d="M51.1040388,30.3863636 C51.8864793,30.3863636 52.5571425,30.0539954 53.0787695,29.3892588 C53.6003965,28.7245223 53.86121,27.7748987 53.86121,26.540388 C53.86121,25.4008396 53.6003965,24.4986972 53.0787695,23.8814418 C52.5571425,23.2641865 51.8864793,22.9318182 51.1040388,22.9318182 C50.3215983,22.9318182 49.6509351,23.2641865 49.1293081,23.928923 C48.570422,24.5936595 48.3096085,25.495802 48.3096085,26.540388 C48.3096085,29.0568906 49.2410853,30.3863636 51.1040388,30.3863636" id="Path" fill="#000000" fill-rule="nonzero"></path>
                <path d="M50.0955888,58.2146084 C50.0095175,57.9535871 50.0095175,57.8230764 50.0095175,57.8230764 L52.8498717,34.3746577 L52.7207647,34.3311542 C52.4625507,34.244147 52.1182653,34.2006435 51.6018373,34.1571399 C51.0423736,34.1136364 50.6550526,34.1136364 50.3968385,34.1136364 C49.2348754,34.1136364 48.1589837,34.244147 47.212199,34.5051684 C46.2654142,34.7661898 45.4477365,35.0707147 44.7161301,35.4622467 C44.4148804,35.7667716 44.1997021,36.2453108 43.9845237,36.9413677 C43.7693454,37.6374247 43.683274,38.1594674 43.683274,38.4639923 L43.683274,38.6380066 L47.7716627,38.202971 L44.8882728,58.6061405 C44.8882728,59.1281832 45.1034511,59.8242401 45.4907722,60.6943113 C45.8780932,61.520879 46.3514856,62.303943 46.8679136,62.9564964 L46.9109493,63 L46.9970206,63 C47.4273773,63 47.9438053,62.9564964 48.5032691,62.8694893 C49.0627328,62.7824822 49.6652321,62.6954751 50.3107672,62.5649644 C50.9132666,62.4344537 51.515766,62.303943 52.161301,62.1734324 C52.7638004,61.9994181 53.3232641,61.8254039 53.7536208,61.6513896 L53.7966565,61.6513896 L53.8396921,61.6078861 C54.0548705,61.2163541 54.2700488,60.6508078 54.4852272,59.9982544 C54.6573699,59.3021974 54.7864769,58.7366512 54.7864769,58.3016156 L54.7864769,58.1276013 L50.3107672,58.6061405 C50.1816602,58.5191334 50.0955888,58.3886227 50.0955888,58.2146084" id="Path" fill="#000000" fill-rule="nonzero"></path>
                <path d="M36.2089993,58.0010695 C36.1650884,57.8695187 36.1211774,57.5625668 36.1211774,57.5187166 L40.4244526,22.2631016 L40.2927197,22.2192513 C40.0292539,22.1315508 39.6779661,22.0877005 39.1510344,22.0438503 C38.6241028,22 38.228904,22 37.9215272,22 C36.779842,22 35.6820677,22.1315508 34.7160263,22.3946524 C33.7499849,22.657754 32.9156765,23.0085561 32.1691899,23.3593583 C31.9057241,23.6663102 31.6422583,24.1486631 31.4227034,24.8502674 C31.2031486,25.5518717 31.1153266,26.0780749 31.1153266,26.3850267 L31.1153266,26.5604278 L35.199047,26.1219251 L34.0573617,34.5411765 C33.3986971,34.2780749 32.6961216,34.0149733 31.9935461,33.8395722 C31.2031486,33.6203209 30.4127511,33.5326203 29.5784426,33.5326203 C27.2950721,33.5326203 25.2312564,34.0588235 23.3869956,35.1550802 C21.5427348,36.2074866 20.0058508,37.6545455 18.7763436,39.4524064 C17.5468364,41.2064171 16.624706,43.2235294 15.9660414,45.5037433 C15.3512878,47.7839572 15,50.1957219 15,52.6074866 C15,54.4491979 15.1756439,56.0716578 15.5708426,57.3871658 C15.9660414,58.7026738 16.492973,59.7550802 17.1955486,60.5882353 C17.8981241,61.4213904 18.6885216,62.0352941 19.654563,62.4299465 C20.5766934,62.8245989 21.6305567,63 22.772242,63 C24.1773931,63 25.7142771,62.6491979 27.2950721,61.9914439 C28.8319561,61.3336898 30.1931962,60.2374332 31.3348815,58.7026738 L31.4227034,58.7026738 C31.5544363,59.3604278 31.7300802,60.1058824 31.9935461,60.8513369 C32.2570119,61.6406417 32.5643887,62.342246 32.8717655,62.9122995 L32.9156765,63 L33.0034984,63 C33.3986971,63 33.8817178,62.9561497 34.4964714,62.8684492 C35.0673141,62.7807487 35.6820677,62.6930481 36.3407323,62.6053476 C36.9554859,62.4737968 37.5702395,62.342246 38.228904,62.2106952 C38.8436576,62.0352941 39.3705893,61.859893 39.85361,61.684492 L39.897521,61.684492 L39.9414319,61.6406417 C40.1609868,61.2459893 40.3805416,60.7197861 40.6000965,60.0620321 C40.7757404,59.4042781 40.9074733,58.8342246 40.9074733,58.3957219 L40.9074733,58.2203209 L36.4285542,58.6149733 C36.2968213,58.3957219 36.2529103,58.2203209 36.2089993,58.0010695 M20.4010495,49.231016 C20.4888715,48.3101604 20.6206044,47.3454545 20.8401592,46.4245989 C21.0158031,45.5037433 21.279269,44.5390374 21.6305567,43.6181818 C21.9379335,42.7411765 22.3331323,41.9518717 22.772242,41.2502674 C23.5187285,40.0663102 24.4847699,39.057754 25.6703661,38.2245989 C26.8120514,37.3914439 28.2172025,36.9967914 29.7979975,36.9967914 C30.456662,36.9967914 31.1153266,37.084492 31.8618131,37.3037433 C32.5643887,37.4791444 33.1352313,37.6983957 33.618252,38.0053476 L31.4666144,54.6245989 C30.7201279,55.940107 29.7979975,56.9486631 28.6563122,57.6502674 C27.5585379,58.3080214 26.4168526,58.6588235 25.1873454,58.6588235 C23.6943724,58.6588235 22.5087762,58.1326203 21.6305567,57.0802139 C20.7523373,56.0278075 20.2693166,54.2737968 20.2693166,51.8620321 C20.2693166,51.028877 20.3132276,50.1518717 20.4010495,49.231016" id="Shape" fill="#000000" fill-rule="nonzero"></path>
                <path d="M267.113918,62.0681818 L259.270463,62.0681818 L259.270463,34.6281372 L265.664584,34.6281372 L266.772898,37.3292666 C267.795957,35.5285137 269.543684,34.1136364 273.678548,34.1136364 L275,34.1136364 L274.019568,40.8878974 C274.019568,40.8878974 273.081764,40.8021472 272.399724,40.8021472 C270.055213,40.8021472 268.307487,42.1312744 267.199173,44.1464027 L267.199173,62.0681818 L267.113918,62.0681818 Z" id="Path" fill="#000000" fill-rule="nonzero"></path>
                <path d="M144.074733,41.1737908 C141.265315,41.1737908 139.70933,43.7998239 139.70933,48.578343 C139.70933,53.3138125 141.265315,55.9398455 144.074733,55.9398455 C146.927373,55.9398455 148.440136,53.3999119 148.440136,48.578343 C148.440136,43.7567741 146.927373,41.1737908 144.074733,41.1737908 M144.074733,63 C134.868487,63 131.58363,55.25105 131.58363,48.578343 C131.58363,37.9020119 138.02368,34.1136364 144.074733,34.1136364 C150.125787,34.1136364 156.565836,37.9020119 156.565836,48.578343 C156.565836,59.2116244 150.125787,63 144.074733,63" id="Shape" fill="#000000" fill-rule="nonzero"></path>
                <path d="M169.153671,55.2849462 C169.713128,55.6376344 170.530795,55.9462366 172.037025,55.9462366 C174.231817,55.9462366 177.158206,55.1086022 177.158206,47.8344086 C177.158206,42.9849462 175.738047,40.6483871 172.768622,40.6483871 C171.391498,40.6483871 170.186514,41.2655914 169.153671,42.411828 L169.153671,55.2849462 Z M171.606674,63 C165.667825,63 162.655365,60.8397849 161.364311,59.9139785 L161.192171,59.7817204 L161.192171,23.1021505 L169.110636,22 L169.110636,36.1956989 C170.272584,34.9612903 172.381306,33.4182796 175.608941,33.4182796 C181.71993,33.4182796 185.248811,38.311828 185.248811,46.8204301 C185.291847,57.5774194 180.687087,63 171.606674,63" id="Shape" fill="#000000" fill-rule="nonzero"></path>
                <path d="M194.039146,31.2961704 C191.425759,31.2961704 189.875445,29.7553686 189.875445,27.2020401 L189.875445,26.9379026 C189.875445,24.3845741 191.381464,22.9318182 194.039146,22.9318182 C196.696827,22.9318182 198.202847,24.3845741 198.202847,26.9379026 L198.202847,27.2020401 C198.202847,29.7993916 196.608238,31.2961704 194.039146,31.2961704 M198.114258,62.0681818 L189.964034,62.0681818 L189.964034,33.8935218 L198.114258,33.8935218 L198.114258,62.0681818 Z" id="Shape" fill="#000000" fill-rule="nonzero"></path>
                <polygon id="Path" fill="#000000" fill-rule="nonzero" points="203.754448 62.0681818 212.081851 62.0681818 212.081851 22 203.754448 23.1385494"></polygon>
                <path d="M221.797153,31.2961704 C219.183766,31.2961704 217.633452,29.7553686 217.633452,27.2020401 L217.633452,26.9379026 C217.633452,24.3845741 219.139471,22.9318182 221.797153,22.9318182 C224.454835,22.9318182 225.960854,24.3845741 225.960854,26.9379026 L225.960854,27.2020401 C225.960854,29.7993916 224.41054,31.2961704 221.797153,31.2961704 M225.872265,62.0681818 L217.722041,62.0681818 L217.722041,33.8935218 L225.872265,33.8935218 L225.872265,62.0681818 Z" id="Shape" fill="#000000" fill-rule="nonzero"></path>
                <path d="M246.390682,54.3900555 C245.591961,55.4232489 244.349507,55.9398455 242.752065,55.9398455 C240.533397,55.9398455 238.004115,55.1219008 238.004115,48.6644425 C238.004115,43.5845753 239.91217,41.0446416 243.728279,41.0446416 C244.79324,41.0446416 245.636334,41.1737908 246.346308,41.4751389 L246.346308,54.3900555 L246.390682,54.3900555 Z M254.422261,36.3522219 C253.22418,35.7495258 250.073671,34.1136364 244.571373,34.1136364 C235.075473,34.1136364 229.661922,39.5379014 229.661922,48.9657905 C229.661922,58.0062322 233.478031,63 240.489024,63 C242.752065,63 245.236974,62.3112044 246.568175,60.675315 C246.745669,60.4600664 246.878789,60.2448178 246.878789,60.2448178 L247.766256,62.3112044 L254.644128,62.3112044 L254.644128,52.6680667 L254.644128,36.4383214 L254.422261,36.3522219 Z" id="Shape" fill="#000000" fill-rule="nonzero"></path>
                <polygon id="Path" fill="#000000" fill-rule="nonzero" points="116.921708 22.9318182 107.570186 48.5971725 98.262159 22.9318182 89.6935548 22.9318182 87.1708185 62.0681818 95.2609727 62.0681818 96.4788454 40.849141 104.482009 62.0681818 110.614868 62.0681818 118.53104 40.849141 119.792408 62.0681818 127.882562 62.0681818 125.403321 22.9318182"></polygon>
                <rect id="bg-logo-copy" x="0" y="0" width="290" height="85"></rect>
            </g>
        </g>
    </g>
</svg>