<?xml version="1.0" encoding="UTF-8"?>
<svg width="290px" height="85px" viewBox="0 0 290 85" version="1.1" xmlns="http://www.w3.org/2000/svg" xmlns:xlink="http://www.w3.org/1999/xlink">
    <title>logo-puzzle</title>
    <defs>
        <filter id="filter-1">
            <feColorMatrix in="SourceGraphic" type="matrix" values="0 0 0 0 1.000000 0 0 0 0 1.000000 0 0 0 0 1.000000 0 0 0 1.000000 0"></feColorMatrix>
        </filter>
    </defs>
    <g id="AC-UI-Desktop--V1" stroke="none" stroke-width="1" fill="none" fill-rule="evenodd">
        <g id="logo-puzzle" transform="translate(-798.000000, -4847.000000)" filter="url(#filter-1)">
            <g transform="translate(798.000000, 4847.000000)">
                <path d="M97.816955,39.044 L102.406923,39.044 C103.74235,39.044 104.759733,38.639 105.45636,37.826 C106.154794,37.013 106.504463,35.969 106.504463,34.691 C106.504463,33.388 106.154794,32.321 105.45636,31.488 C104.759733,30.655 103.74235,30.239 102.406923,30.239 L97.816955,30.239 L97.816955,39.044 Z M97.816955,44.284 L97.816955,54.338 L91.6430868,54.338 L91.6430868,25 L102.406923,25 C105.551232,25 108.046801,25.89 109.891823,27.67 C111.738653,29.45 112.661164,31.777 112.661164,34.651 C112.661164,37.541 111.738653,39.868 109.891823,41.635 C108.046801,43.4 105.551232,44.284 102.406923,44.284 L97.816955,44.284 Z M137.012389,25 L137.012389,44.223 C137.012389,47.568 136.006752,50.161 133.997286,52.003 C131.988723,53.842 129.35672,54.761 126.103987,54.761 C122.813305,54.761 120.160521,53.841 118.143826,52.002 C116.128939,50.161 115.120592,47.568 115.120592,44.222 L115.120592,25 L121.29446,25 L121.29446,44.223 C121.29446,46.024 121.714605,47.357 122.55128,48.223 C123.388859,49.089 124.573395,49.523 126.103987,49.523 C127.621026,49.523 128.788395,49.093 129.608807,48.233 C130.428315,47.373 130.837617,46.036 130.837617,44.223 L130.837617,25 L137.011486,25 L137.012389,25 Z M147.014543,49.1 L159.090315,49.1 L159.090315,54.338 L139.438386,54.338 L139.438386,51.276 L151.294598,30.239 L139.384174,30.239 L139.384174,25 L158.927678,25 L158.927678,27.942 L147.01364,49.1 L147.014543,49.1 Z M168.592814,49.1 L180.667682,49.1 L180.667682,54.338 L161.017559,54.338 L161.017559,51.276 L172.873772,30.239 L160.962444,30.239 L160.962444,25 L180.505949,25 L180.505949,27.942 L168.592814,49.1 Z M189.15099,49.1 L200.570794,49.1 L200.570794,54.338 L182.976219,54.338 L182.976219,25 L189.15099,25 L189.15099,49.1 Z M219.282141,41.785 L208.882431,41.785 L208.882431,49.099 L221.139814,49.099 L221.139814,54.338 L202.709466,54.338 L202.709466,25 L221.175955,25 L221.175955,30.24 L208.882431,30.24 L208.882431,36.546 L219.282141,36.546 L219.282141,41.785 L219.282141,41.785 Z M239.769842,54.338 L233.632116,54.338 L233.632116,25 L239.769842,25 L239.769842,54.338 Z M262.175752,30.239 L255.182376,30.239 L255.182376,54.337 L249.006701,54.337 L249.006701,30.24 L242.068441,30.24 L242.068441,25 L262.175752,25 L262.175752,30.24 L262.175752,30.239 Z M284.64491,44.042 L284.681051,44.162 C284.559977,47.602 283.639273,50.227 281.922553,52.042 C280.202219,53.855 277.712071,54.76 274.445785,54.76 C271.167752,54.76 268.502318,53.646 266.450386,51.416 C264.398453,49.186 263.372035,46.292 263.372035,42.732 L263.372035,36.606 C263.372035,33.06 264.357794,30.169 266.332023,27.932 C268.305347,25.696 270.867778,24.577 274.027447,24.577 C277.377762,24.577 279.938386,25.511 281.710222,27.377 C283.484768,29.245 284.485887,31.897 284.716289,35.337 L284.681955,35.457 L278.688794,35.457 C278.603862,33.551 278.218955,32.132 277.532267,31.207 C276.846482,30.279 275.677305,29.817 274.026543,29.817 C272.629675,29.817 271.530974,30.437 270.728633,31.68 C269.929003,32.923 269.527833,34.551 269.527833,36.566 L269.527833,42.732 C269.527833,44.76 269.965145,46.4 270.839768,47.648 C271.713489,48.898 272.915193,49.523 274.444881,49.523 C275.926682,49.523 276.977495,49.086 277.596418,48.212 C278.215341,47.34 278.56772,45.949 278.651749,44.042 L284.64491,44.042 L284.64491,44.042 Z M15.2101833,71.274 C1.09061093,55.653 1.09061093,30.326 15.2101833,14.704 C29.3288521,-0.916 52.2217685,-0.914 66.3404373,14.704 C80.4600096,30.327 80.4582026,55.651 66.3404373,71.273 C52.220865,86.895 29.3306592,86.896 15.2110868,71.274 L15.2101833,71.274 Z M39.8270482,47.898 C39.8270482,47.898 46.3343215,46.881 48.214582,42.861 C50.095746,38.844 52.3112186,30.702 52.3112186,30.702 C42.2918971,30.701 41.3992026,34.584 41.3992026,34.584 C41.3992026,34.584 35.0663119,54.174 32.808373,61.402 C15.2625884,61.402 18.0671672,51.814 18.0671672,51.814 L26.8432219,24.576 L44.6248296,24.576 L43.4366785,28.497 C43.4366785,28.497 44.8859518,24.576 54.6857138,24.576 C54.6857138,24.576 64.733045,24.624 63.5521222,28.519 C62.3730064,32.411 58.5826688,44.092 58.5826688,44.092 C57.31591,47.898 49.8978714,47.865 39.8270482,47.898 L39.8270482,47.898 Z" id="Shape" fill="#000000"></path>
                <rect id="bg-logo" x="0" y="0" width="290" height="85"></rect>
            </g>
        </g>
    </g>
</svg>